<svg width="24" height="24" viewBox="0 0 24 24" fill="none" xmlns="http://www.w3.org/2000/svg">
<path fill-rule="evenodd" clip-rule="evenodd" d="M16 2H8C6.69378 2 5.58254 2.83481 5.17071 4H4C2.34315 4 1 5.34314 1 7V17C1 18.6569 2.34315 20 4 20H5.17071C5.58254 21.1652 6.69378 22 8 22H16C17.3062 22 18.4175 21.1652 18.8293 20H20C21.6569 20 23 18.6569 23 17V7C23 5.34315 21.6569 4 20 4H18.8293C18.4175 2.83481 17.3062 2 16 2ZM19 6V18H20C20.5523 18 21 17.5523 21 17V7C21 6.44772 20.5523 6 20 6H19ZM5 18V6H4C3.44772 6 3 6.44771 3 7V17C3 17.5523 3.44772 18 4 18H5ZM7 5C7 4.44772 7.44772 4 8 4H16C16.5523 4 17 4.44772 17 5V19C17 19.5523 16.5523 20 16 20H8C7.44772 20 7 19.5523 7 19V5Z" fill="#1A688A"/>
</svg>
