<svg width="300" height="300" viewBox="0 0 300 300" fill="none" xmlns="http://www.w3.org/2000/svg">
<path d="M0 0H300V300H0V0Z" fill="#ECECEC"/>
<path d="M1 1L299 299" stroke="#E2E7F0"/>
<path d="M46.3665 252L38.8097 224.364H42.2102L47.9858 246.872H48.2557L54.1392 224.364H57.9176L63.8011 246.872H64.071L69.8466 224.364H73.2472L65.6903 252H62.2358L56.1364 229.977H55.9205L49.821 252H46.3665ZM86.755 223.068L77.8487 256.156H74.9339L83.8402 223.068H86.755ZM99.8141 252.378C98.0328 252.378 96.445 252.072 95.0506 251.46C93.6652 250.848 92.5632 249.998 91.7445 248.91C90.9348 247.812 90.494 246.539 90.4221 245.091H93.8226C93.8946 245.982 94.2005 246.751 94.7402 247.398C95.28 248.037 95.9862 248.532 96.8588 248.883C97.7315 249.234 98.6986 249.409 99.7601 249.409C100.948 249.409 102 249.202 102.918 248.788C103.835 248.375 104.555 247.799 105.077 247.061C105.599 246.323 105.86 245.469 105.86 244.497C105.86 243.481 105.608 242.585 105.104 241.812C104.6 241.029 103.862 240.417 102.891 239.977C101.919 239.536 100.732 239.315 99.3283 239.315H97.1152V236.347H99.3283C100.426 236.347 101.388 236.149 102.216 235.753C103.053 235.357 103.705 234.799 104.173 234.08C104.65 233.36 104.888 232.514 104.888 231.543C104.888 230.607 104.681 229.793 104.267 229.1C103.853 228.407 103.269 227.868 102.513 227.481C101.766 227.094 100.885 226.901 99.8681 226.901C98.9145 226.901 98.0149 227.076 97.1692 227.427C96.3326 227.769 95.6489 228.268 95.1181 228.925C94.5873 229.572 94.2994 230.355 94.2544 231.273H91.0158C91.0698 229.824 91.5061 228.556 92.3248 227.467C93.1434 226.37 94.214 225.515 95.5364 224.903C96.8678 224.292 98.3297 223.986 99.9221 223.986C101.631 223.986 103.098 224.332 104.321 225.025C105.545 225.709 106.485 226.613 107.142 227.737C107.798 228.862 108.127 230.076 108.127 231.381C108.127 232.937 107.717 234.264 106.899 235.362C106.089 236.459 104.987 237.219 103.593 237.642V237.858C105.338 238.146 106.701 238.888 107.681 240.085C108.662 241.272 109.152 242.743 109.152 244.497C109.152 246 108.743 247.349 107.924 248.545C107.115 249.733 106.008 250.669 104.605 251.352C103.201 252.036 101.604 252.378 99.8141 252.378ZM123.686 252.378C121.652 252.378 119.921 251.825 118.49 250.718C117.06 249.603 115.967 247.988 115.211 245.874C114.455 243.75 114.078 241.187 114.078 238.182C114.078 235.195 114.455 232.645 115.211 230.531C115.976 228.407 117.073 226.788 118.504 225.673C119.943 224.548 121.67 223.986 123.686 223.986C125.701 223.986 127.423 224.548 128.854 225.673C130.293 226.788 131.391 228.407 132.146 230.531C132.911 232.645 133.294 235.195 133.294 238.182C133.294 241.187 132.916 243.75 132.16 245.874C131.404 247.988 130.311 249.603 128.881 250.718C127.45 251.825 125.719 252.378 123.686 252.378ZM123.686 249.409C125.701 249.409 127.266 248.437 128.382 246.494C129.497 244.551 130.055 241.78 130.055 238.182C130.055 235.789 129.798 233.751 129.286 232.069C128.782 230.387 128.053 229.105 127.1 228.223C126.155 227.341 125.017 226.901 123.686 226.901C121.688 226.901 120.128 227.886 119.003 229.856C117.878 231.817 117.316 234.592 117.316 238.182C117.316 240.575 117.568 242.608 118.072 244.281C118.576 245.955 119.3 247.228 120.244 248.1C121.198 248.973 122.345 249.409 123.686 249.409ZM147.436 252.378C145.402 252.378 143.671 251.825 142.24 250.718C140.81 249.603 139.717 247.988 138.961 245.874C138.205 243.75 137.828 241.187 137.828 238.182C137.828 235.195 138.205 232.645 138.961 230.531C139.726 228.407 140.823 226.788 142.254 225.673C143.693 224.548 145.42 223.986 147.436 223.986C149.451 223.986 151.173 224.548 152.604 225.673C154.043 226.788 155.141 228.407 155.896 230.531C156.661 232.645 157.044 235.195 157.044 238.182C157.044 241.187 156.666 243.75 155.91 245.874C155.154 247.988 154.061 249.603 152.631 250.718C151.2 251.825 149.469 252.378 147.436 252.378ZM147.436 249.409C149.451 249.409 151.016 248.437 152.132 246.494C153.247 244.551 153.805 241.78 153.805 238.182C153.805 235.789 153.548 233.751 153.036 232.069C152.532 230.387 151.803 229.105 150.85 228.223C149.905 227.341 148.767 226.901 147.436 226.901C145.438 226.901 143.878 227.886 142.753 229.856C141.628 231.817 141.066 234.592 141.066 238.182C141.066 240.575 141.318 242.608 141.822 244.281C142.326 245.955 143.05 247.228 143.994 248.1C144.948 248.973 146.095 249.409 147.436 249.409Z" fill="#CBD2E0"/>
<path d="M153.347 72V44.3636H156.693V56.6705H171.429V44.3636H174.776V72H171.429V59.6392H156.693V72H153.347ZM190.814 43.0682L181.907 76.1562H178.993L187.899 43.0682H190.814ZM203.873 72.3778C202.091 72.3778 200.504 72.072 199.109 71.4602C197.724 70.8485 196.622 69.9983 195.803 68.9098C194.993 67.8123 194.553 66.5393 194.481 65.0909H197.881C197.953 65.9815 198.259 66.7507 198.799 67.3984C199.339 68.0372 200.045 68.532 200.917 68.8828C201.79 69.2337 202.757 69.4091 203.819 69.4091C205.006 69.4091 206.059 69.2022 206.976 68.7884C207.894 68.3745 208.614 67.7988 209.135 67.0611C209.657 66.3234 209.918 65.4688 209.918 64.4972C209.918 63.4806 209.666 62.5855 209.162 61.8118C208.659 61.0291 207.921 60.4174 206.949 59.9766C205.978 59.5357 204.79 59.3153 203.387 59.3153H201.174V56.3466H203.387C204.484 56.3466 205.447 56.1487 206.275 55.7528C207.111 55.357 207.764 54.7992 208.231 54.0795C208.708 53.3598 208.947 52.5142 208.947 51.5426C208.947 50.607 208.74 49.7928 208.326 49.1001C207.912 48.4074 207.327 47.8677 206.572 47.4808C205.825 47.094 204.943 46.9006 203.927 46.9006C202.973 46.9006 202.073 47.076 201.228 47.4268C200.391 47.7687 199.707 48.268 199.177 48.9247C198.646 49.5724 198.358 50.3551 198.313 51.2727H195.074C195.128 49.8243 195.565 48.5559 196.383 47.4673C197.202 46.3698 198.273 45.5152 199.595 44.9034C200.926 44.2917 202.388 43.9858 203.981 43.9858C205.69 43.9858 207.156 44.3321 208.38 45.0249C209.603 45.7086 210.543 46.6127 211.2 47.7372C211.857 48.8617 212.185 50.0762 212.185 51.3807C212.185 52.937 211.776 54.264 210.957 55.3615C210.148 56.459 209.046 57.2192 207.651 57.642V57.858C209.396 58.1458 210.759 58.888 211.74 60.0845C212.72 61.272 213.211 62.7429 213.211 64.4972C213.211 65.9995 212.801 67.349 211.983 68.5455C211.173 69.733 210.067 70.6686 208.663 71.3523C207.26 72.036 205.663 72.3778 203.873 72.3778ZM227.744 72.3778C225.711 72.3778 223.979 71.8246 222.549 70.718C221.118 69.6025 220.025 67.9877 219.27 65.8736C218.514 63.7505 218.136 61.1866 218.136 58.1818C218.136 55.1951 218.514 52.6446 219.27 50.5305C220.034 48.4074 221.132 46.7881 222.562 45.6726C224.002 44.5481 225.729 43.9858 227.744 43.9858C229.759 43.9858 231.482 44.5481 232.912 45.6726C234.352 46.7881 235.449 48.4074 236.205 50.5305C236.97 52.6446 237.352 55.1951 237.352 58.1818C237.352 61.1866 236.974 63.7505 236.219 65.8736C235.463 67.9877 234.37 69.6025 232.939 70.718C231.509 71.8246 229.777 72.3778 227.744 72.3778ZM227.744 69.4091C229.759 69.4091 231.325 68.4375 232.44 66.4943C233.556 64.5511 234.113 61.7803 234.113 58.1818C234.113 55.7888 233.857 53.7512 233.344 52.0689C232.84 50.3866 232.112 49.1046 231.158 48.223C230.214 47.3414 229.076 46.9006 227.744 46.9006C225.747 46.9006 224.186 47.8857 223.062 49.8558C221.937 51.817 221.375 54.5923 221.375 58.1818C221.375 60.5748 221.627 62.608 222.131 64.2812C222.634 65.9545 223.358 67.2275 224.303 68.1001C225.257 68.9728 226.404 69.4091 227.744 69.4091ZM251.494 72.3778C249.461 72.3778 247.729 71.8246 246.299 70.718C244.868 69.6025 243.775 67.9877 243.02 65.8736C242.264 63.7505 241.886 61.1866 241.886 58.1818C241.886 55.1951 242.264 52.6446 243.02 50.5305C243.784 48.4074 244.882 46.7881 246.312 45.6726C247.752 44.5481 249.479 43.9858 251.494 43.9858C253.509 43.9858 255.232 44.5481 256.662 45.6726C258.102 46.7881 259.199 48.4074 259.955 50.5305C260.72 52.6446 261.102 55.1951 261.102 58.1818C261.102 61.1866 260.724 63.7505 259.969 65.8736C259.213 67.9877 258.12 69.6025 256.689 70.718C255.259 71.8246 253.527 72.3778 251.494 72.3778ZM251.494 69.4091C253.509 69.4091 255.075 68.4375 256.19 66.4943C257.306 64.5511 257.863 61.7803 257.863 58.1818C257.863 55.7888 257.607 53.7512 257.094 52.0689C256.59 50.3866 255.862 49.1046 254.908 48.223C253.964 47.3414 252.826 46.9006 251.494 46.9006C249.497 46.9006 247.936 47.8857 246.812 49.8558C245.687 51.817 245.125 54.5923 245.125 58.1818C245.125 60.5748 245.377 62.608 245.881 64.2812C246.384 65.9545 247.108 67.2275 248.053 68.1001C249.007 68.9728 250.154 69.4091 251.494 69.4091Z" fill="#CBD2E0"/>
</svg>
