<svg width="24" height="28" viewBox="0 0 24 28" fill="none" xmlns="http://www.w3.org/2000/svg">
<path d="M7 14C6.30964 14 5.75 14.5596 5.75 15.25C5.75 15.9404 6.30964 16.5 7 16.5H17C17.6904 16.5 18.25 15.9404 18.25 15.25C18.25 14.5596 17.6904 14 17 14H7Z" fill="#115A7B"/>
<path d="M5.75 20.25C5.75 19.5596 6.30964 19 7 19H17C17.6904 19 18.25 19.5596 18.25 20.25C18.25 20.9404 17.6904 21.5 17 21.5H7C6.30964 21.5 5.75 20.9404 5.75 20.25Z" fill="#115A7B"/>
<path d="M7 9C6.30964 9 5.75 9.55964 5.75 10.25C5.75 10.9404 6.30964 11.5 7 11.5H9.5C10.1904 11.5 10.75 10.9404 10.75 10.25C10.75 9.55964 10.1904 9 9.5 9H7Z" fill="#115A7B"/>
<path fill-rule="evenodd" clip-rule="evenodd" d="M1.84835 1.34835C2.55161 0.645088 3.50544 0.25 4.5 0.25H14.5C14.8315 0.25 15.1495 0.381696 15.3839 0.616117L22.8839 8.11612C23.1183 8.35054 23.25 8.66848 23.25 9V24C23.25 24.9946 22.8549 25.9484 22.1517 26.6517C21.4484 27.3549 20.4946 27.75 19.5 27.75H4.5C3.50544 27.75 2.55161 27.3549 1.84835 26.6517C1.14509 25.9484 0.75 24.9946 0.75 24V4C0.75 3.00544 1.14509 2.05161 1.84835 1.34835ZM4.5 2.75C4.16848 2.75 3.85054 2.8817 3.61612 3.11612C3.3817 3.35054 3.25 3.66848 3.25 4V24C3.25 24.3315 3.3817 24.6495 3.61612 24.8839C3.85054 25.1183 4.16848 25.25 4.5 25.25H19.5C19.8315 25.25 20.1495 25.1183 20.3839 24.8839C20.6183 24.6495 20.75 24.3315 20.75 24V10.25H14.5C13.8096 10.25 13.25 9.69036 13.25 9V2.75H4.5ZM15.75 4.51777L18.9822 7.75H15.75V4.51777Z" fill="#115A7B"/>
</svg>
