<svg width="1514" height="800" viewBox="0 0 1514 800" fill="none" xmlns="http://www.w3.org/2000/svg">
<circle cx="385.973" cy="135.639" r="15" transform="rotate(-165.906 385.973 135.639)" fill="#023F5C"/>
<circle cx="204.81" cy="5.09219" r="7.5" transform="rotate(-165.906 204.81 5.09219)" fill="#79C5E7"/>
<circle cx="32.6132" cy="1.03683" r="12.5" transform="rotate(-165.906 32.6132 1.03683)" fill="#3696C0"/>
<circle cx="406.226" cy="13.9067" r="10" transform="rotate(-165.906 406.226 13.9067)" fill="#717D96"/>
<circle cx="613.091" cy="31.8217" r="5" transform="rotate(-165.906 613.091 31.8217)" fill="#41A8D3"/>
<circle cx="566.807" cy="111.448" r="2.5" transform="rotate(-165.906 566.807 111.448)" fill="#1A202C"/>
<circle r="7.5" transform="matrix(0.969896 -0.24352 -0.24352 -0.969896 414.349 715.092)" fill="#79C5E7"/>
<circle r="12.5" transform="matrix(0.969896 -0.24352 -0.24352 -0.969896 586.545 711.037)" fill="#3696C0"/>
<circle r="10" transform="matrix(0.969896 -0.24352 -0.24352 -0.969896 212.932 723.907)" fill="#717D96"/>
<circle r="5" transform="matrix(0.969896 -0.24352 -0.24352 -0.969896 6.06718 741.822)" fill="#41A8D3"/>
<circle cx="1340.62" cy="403.029" r="15" transform="rotate(-74.5846 1340.62 403.029)" fill="#023F5C"/>
<circle cx="1475.31" cy="224.923" r="7.5" transform="rotate(-74.5846 1475.31 224.923)" fill="#79C5E7"/>
<circle cx="1483.34" cy="52.8663" r="12.5" transform="rotate(-74.5846 1483.34 52.8663)" fill="#3696C0"/>
<circle cx="1461.86" cy="426.084" r="10" transform="rotate(-74.5846 1461.86 426.084)" fill="#717D96"/>
<circle cx="1439.18" cy="632.48" r="5" transform="rotate(-74.5846 1439.18 632.48)" fill="#41A8D3"/>
<circle cx="1360.64" cy="584.373" r="2.5" transform="rotate(-74.5846 1360.64 584.373)" fill="#1A202C"/>
</svg>
