<svg width="70" height="70" viewBox="0 0 70 70" fill="none" xmlns="http://www.w3.org/2000/svg">
<rect width="70" height="70" rx="35" fill="#4CB8E7"/>
<path fill-rule="evenodd" clip-rule="evenodd" d="M40 16.6667C37.3478 16.6667 34.8043 17.7203 32.9289 19.5957C31.0536 21.471 30 24.0146 30 26.6667V30.0001H26.6667C25.7462 30.0001 25 30.7463 25 31.6667V38.3334C25 39.2539 25.7462 40.0001 26.6667 40.0001H30V51.6667C30 52.5872 30.7462 53.3334 31.6667 53.3334H38.3333C39.2538 53.3334 40 52.5872 40 51.6667V40.0001H43.3333C44.0981 40.0001 44.7648 39.4796 44.9502 38.7376L46.6169 32.071C46.7414 31.5731 46.6295 31.0456 46.3137 30.6411C45.9978 30.2365 45.5132 30.0001 45 30.0001H40V26.6667H45C45.9205 26.6667 46.6667 25.9206 46.6667 25.0001V18.3334C46.6667 17.4129 45.9205 16.6667 45 16.6667H40ZM35.286 21.9527C36.5362 20.7025 38.2319 20.0001 40 20.0001H43.3333V23.3334H40C39.1159 23.3334 38.2681 23.6846 37.643 24.3097C37.0179 24.9348 36.6667 25.7827 36.6667 26.6667V31.6667C36.6667 32.5872 37.4129 33.3334 38.3333 33.3334H42.8654L42.032 36.6667H38.3333C37.4129 36.6667 36.6667 37.4129 36.6667 38.3334V50.0001H33.3333V38.3334C33.3333 37.4129 32.5871 36.6667 31.6667 36.6667H28.3333V33.3334H31.6667C32.5871 33.3334 33.3333 32.5872 33.3333 31.6667V26.6667C33.3333 24.8986 34.0357 23.2029 35.286 21.9527Z" fill="#F7F9FC"/>
</svg>
