<svg width="70" height="70" viewBox="0 0 70 70" fill="none" xmlns="http://www.w3.org/2000/svg">
<rect width="70" height="70" rx="35" fill="#4CB8E7"/>
<path fill-rule="evenodd" clip-rule="evenodd" d="M31.2339 27.5311C32.7898 26.7238 34.5605 26.4277 36.2944 26.6848C38.063 26.947 39.7003 27.7712 40.9646 29.0354C42.2288 30.2997 43.053 31.937 43.3152 33.7056C43.5723 35.4394 43.2762 37.2102 42.4689 38.766C41.6616 40.3219 40.3843 41.5835 38.8186 42.3716C37.2529 43.1596 35.4786 43.4339 33.7481 43.1555C32.0176 42.877 30.4189 42.0599 29.1795 40.8205C27.94 39.5811 27.123 37.9824 26.8445 36.2519C26.5661 34.5213 26.8404 32.747 27.6284 31.1814C28.4164 29.6157 29.6781 28.3384 31.2339 27.5311ZM35.8054 29.982C34.7651 29.8278 33.7027 30.0055 32.7692 30.4898C31.8357 30.9742 31.0787 31.7406 30.6058 32.68C30.133 33.6194 29.9684 34.684 30.1355 35.7223C30.3026 36.7606 30.7928 37.7198 31.5365 38.4635C32.2801 39.2071 33.2393 39.6974 34.2777 39.8645C35.316 40.0315 36.3806 39.867 37.32 39.3941C38.2594 38.9213 39.0258 38.1643 39.5101 37.2308C39.9945 36.2973 40.1722 35.2349 40.0179 34.1945C39.8606 33.1334 39.3661 32.151 38.6076 31.3924C37.849 30.6339 36.8666 30.1394 35.8054 29.982Z" fill="#F7F9FC"/>
<path d="M44.1667 24.1667C43.2462 24.1667 42.5 24.9129 42.5 25.8334C42.5 26.7539 43.2462 27.5001 44.1667 27.5001H44.1833C45.1038 27.5001 45.85 26.7539 45.85 25.8334C45.85 24.9129 45.1038 24.1667 44.1833 24.1667H44.1667Z" fill="#F7F9FC"/>
<path fill-rule="evenodd" clip-rule="evenodd" d="M16.6667 26.6667C16.6667 21.1439 21.1438 16.6667 26.6667 16.6667H43.3333C48.8562 16.6667 53.3333 21.1439 53.3333 26.6667V43.3334C53.3333 48.8563 48.8562 53.3334 43.3333 53.3334H26.6667C21.1438 53.3334 16.6667 48.8563 16.6667 43.3334V26.6667ZM26.6667 20.0001C22.9848 20.0001 20 22.9848 20 26.6667V43.3334C20 47.0153 22.9848 50.0001 26.6667 50.0001H43.3333C47.0152 50.0001 50 47.0153 50 43.3334V26.6667C50 22.9848 47.0152 20.0001 43.3333 20.0001H26.6667Z" fill="#F7F9FC"/>
</svg>
