<svg width="59" height="46" viewBox="0 0 59 46" fill="none" xmlns="http://www.w3.org/2000/svg">
<g filter="url(#filter0_d_183_269)">
<path d="M16.25 15C15.6925 15 15.1575 15.0849 14.625 15.1624C14.7975 14.5824 14.975 13.9925 15.26 13.4625C15.545 12.6925 15.99 12.025 16.4325 11.3525C16.8025 10.625 17.455 10.1325 17.935 9.50995C18.4375 8.90495 19.1225 8.50245 19.665 7.99995C20.1975 7.47495 20.895 7.21245 21.45 6.84245C22.03 6.50995 22.535 6.14245 23.075 5.96745L24.4225 5.41245L25.6075 4.91995L24.395 0.0749512L22.9025 0.43495C22.425 0.55495 21.8425 0.69495 21.18 0.86245C20.5025 0.98745 19.78 1.32995 18.975 1.64245C18.18 1.99745 17.26 2.23745 16.405 2.80745C15.545 3.35245 14.5525 3.80745 13.6775 4.53745C12.83 5.28995 11.8075 5.94245 11.0525 6.89995C10.2275 7.79495 9.4125 8.73495 8.78 9.80495C8.0475 10.825 7.55 11.945 7.025 13.0525C6.55 14.16 6.1675 15.2925 5.855 16.3925C5.2625 18.5975 4.9975 20.6925 4.895 22.485C4.81 24.28 4.86 25.7725 4.965 26.8525C5.0025 27.3625 5.0725 27.8575 5.1225 28.2L5.185 28.6199L5.25 28.605C5.69465 30.682 6.71826 32.5908 8.20241 34.1104C9.68656 35.63 11.5706 36.6984 13.6366 37.192C15.7026 37.6856 17.8661 37.5842 19.8769 36.8995C21.8877 36.2149 23.6635 34.9749 24.999 33.3232C26.3345 31.6714 27.1751 29.6753 27.4235 27.5657C27.672 25.4561 27.3181 23.3193 26.4028 21.4025C25.4876 19.4857 24.0483 17.8671 22.2516 16.7341C20.4549 15.601 18.3741 14.9998 16.25 15ZM43.75 15C43.1925 15 42.6575 15.0849 42.125 15.1624C42.2975 14.5824 42.475 13.9925 42.76 13.4625C43.045 12.6925 43.49 12.025 43.9325 11.3525C44.3025 10.625 44.955 10.1325 45.435 9.50995C45.9375 8.90495 46.6225 8.50245 47.165 7.99995C47.6975 7.47495 48.395 7.21245 48.95 6.84245C49.53 6.50995 50.035 6.14245 50.575 5.96745L51.9225 5.41245L53.1075 4.91995L51.895 0.0749512L50.4025 0.43495C49.925 0.55495 49.3425 0.69495 48.68 0.86245C48.0025 0.98745 47.28 1.32995 46.475 1.64245C45.6825 1.99995 44.76 2.23745 43.905 2.80995C43.045 3.35495 42.0525 3.80995 41.1775 4.53995C40.33 5.29245 39.3075 5.94495 38.5525 6.89995C37.7275 7.79495 36.9125 8.73495 36.28 9.80495C35.5475 10.825 35.05 11.945 34.525 13.0525C34.05 14.16 33.6675 15.2925 33.355 16.3925C32.7625 18.5975 32.4975 20.6925 32.395 22.485C32.31 24.28 32.36 25.7725 32.465 26.8525C32.5025 27.3625 32.5725 27.8575 32.6225 28.2L32.685 28.6199L32.75 28.605C33.1947 30.682 34.2183 32.5908 35.7024 34.1104C37.1866 35.63 39.0706 36.6984 41.1366 37.192C43.2026 37.6856 45.3661 37.5842 47.3769 36.8995C49.3877 36.2149 51.1635 34.9749 52.499 33.3232C53.8345 31.6714 54.6751 29.6753 54.9235 27.5657C55.172 25.4561 54.8181 23.3193 53.9028 21.4025C52.9876 19.4857 51.5483 17.8671 49.7516 16.7341C47.9549 15.601 45.8741 14.9998 43.75 15Z" fill="#4CB8E7"/>
</g>
<defs>
<filter id="filter0_d_183_269" x="0.851929" y="0.0749512" width="58.1488" height="45.425" filterUnits="userSpaceOnUse" color-interpolation-filters="sRGB">
<feFlood flood-opacity="0" result="BackgroundImageFix"/>
<feColorMatrix in="SourceAlpha" type="matrix" values="0 0 0 0 0 0 0 0 0 0 0 0 0 0 0 0 0 0 127 0" result="hardAlpha"/>
<feOffset dy="4"/>
<feGaussianBlur stdDeviation="2"/>
<feComposite in2="hardAlpha" operator="out"/>
<feColorMatrix type="matrix" values="0 0 0 0 0 0 0 0 0 0 0 0 0 0 0 0 0 0 0.25 0"/>
<feBlend mode="normal" in2="BackgroundImageFix" result="effect1_dropShadow_183_269"/>
<feBlend mode="normal" in="SourceGraphic" in2="effect1_dropShadow_183_269" result="shape"/>
</filter>
</defs>
</svg>
