<svg width="50" height="50" viewBox="0 0 50 50" fill="none" xmlns="http://www.w3.org/2000/svg">
<rect width="50" height="50" rx="25" fill="#22749A"/>
<path fill-rule="evenodd" clip-rule="evenodd" d="M28.75 11.25C26.7609 11.25 24.8532 12.0402 23.4467 13.4467C22.0402 14.8532 21.25 16.7609 21.25 18.75V21.25H18.75C18.0596 21.25 17.5 21.8096 17.5 22.5V27.5C17.5 28.1904 18.0596 28.75 18.75 28.75H21.25V37.5C21.25 38.1904 21.8096 38.75 22.5 38.75H27.5C28.1904 38.75 28.75 38.1904 28.75 37.5V28.75H31.25C31.8236 28.75 32.3236 28.3596 32.4627 27.8032L33.7127 22.8032C33.806 22.4297 33.7221 22.0341 33.4853 21.7307C33.2484 21.4273 32.8849 21.25 32.5 21.25H28.75V18.75H32.5C33.1904 18.75 33.75 18.1904 33.75 17.5V12.5C33.75 11.8096 33.1904 11.25 32.5 11.25H28.75ZM25.2145 15.2145C26.1521 14.2768 27.4239 13.75 28.75 13.75H31.25V16.25H28.75C28.087 16.25 27.4511 16.5134 26.9822 16.9822C26.5134 17.4511 26.25 18.087 26.25 18.75V22.5C26.25 23.1904 26.8096 23.75 27.5 23.75H30.899L30.274 26.25H27.5C26.8096 26.25 26.25 26.8096 26.25 27.5V36.25H23.75V27.5C23.75 26.8096 23.1904 26.25 22.5 26.25H20V23.75H22.5C23.1904 23.75 23.75 23.1904 23.75 22.5V18.75C23.75 17.4239 24.2768 16.1521 25.2145 15.2145Z" fill="white"/>
</svg>
