<svg width="50" height="50" viewBox="0 0 50 50" fill="none" xmlns="http://www.w3.org/2000/svg">
<path fill-rule="evenodd" clip-rule="evenodd" d="M25 16.6667C20.3976 16.6667 16.6667 20.3976 16.6667 25C16.6667 29.6024 20.3976 33.3333 25 33.3333C29.6024 33.3333 33.3333 29.6024 33.3333 25C33.3333 20.3976 29.6024 16.6667 25 16.6667ZM20.8333 25C20.8333 22.6988 22.6988 20.8333 25 20.8333C27.3012 20.8333 29.1667 22.6988 29.1667 25C29.1667 27.3012 27.3012 29.1667 25 29.1667C22.6988 29.1667 20.8333 27.3012 20.8333 25Z" fill="#41A8D3"/>
<path fill-rule="evenodd" clip-rule="evenodd" d="M49.7793 24.0668C49.7797 24.0676 49.7801 24.0683 47.9167 25C49.7801 25.9317 49.7797 25.9324 49.7793 25.9332L49.776 25.9399L49.7688 25.9541L49.7451 26.0004C49.7253 26.039 49.6972 26.0931 49.6609 26.1616C49.5885 26.2985 49.4833 26.4933 49.3459 26.7375C49.0713 27.2257 48.667 27.9135 48.1368 28.7344C47.079 30.3723 45.5066 32.5613 43.447 34.7582C39.3657 39.1116 33.124 43.75 25 43.75C16.876 43.75 10.6343 39.1116 6.55305 34.7582C4.4934 32.5613 2.92097 30.3723 1.8632 28.7344C1.33302 27.9135 0.928733 27.2257 0.654107 26.7375C0.516715 26.4933 0.411542 26.2985 0.339069 26.1616C0.302826 26.0931 0.27474 26.039 0.25487 26.0004L0.231229 25.9541L0.224039 25.9399L0.221604 25.935C0.221221 25.9342 0.219943 25.9317 2.08333 25C0.219943 24.0683 0.220294 24.0676 0.220677 24.0668L0.224039 24.0601L0.231229 24.0459L0.25487 23.9996C0.27474 23.961 0.302826 23.9069 0.339069 23.8384C0.411542 23.7015 0.516715 23.5067 0.654107 23.2625C0.928733 22.7743 1.33302 22.0865 1.8632 21.2656C2.92097 19.6277 4.4934 17.4387 6.55305 15.2418C10.6343 10.8884 16.876 6.25 25 6.25C33.124 6.25 39.3657 10.8884 43.447 15.2418C45.5066 17.4387 47.079 19.6277 48.1368 21.2656C48.667 22.0865 49.0713 22.7743 49.3459 23.2625C49.4833 23.5067 49.5885 23.7015 49.6609 23.8384C49.6972 23.9069 49.7253 23.961 49.7451 23.9996L49.7688 24.0459L49.776 24.0601L49.7793 24.0668ZM5.36336 26.4739C4.98942 25.8949 4.68757 25.3935 4.45988 25C4.68757 24.6065 4.98942 24.1051 5.36336 23.5261C6.32382 22.0389 7.74618 20.0613 9.59279 18.0915C13.324 14.1116 18.5406 10.4167 25 10.4167C31.4594 10.4167 36.676 14.1116 40.4072 18.0915C42.2538 20.0613 43.6762 22.0389 44.6366 23.5261C45.0106 24.1051 45.3124 24.6065 45.5401 25C45.3124 25.3935 45.0106 25.8949 44.6366 26.4739C43.6762 27.9611 42.2538 29.9387 40.4072 31.9085C36.676 35.8884 31.4594 39.5833 25 39.5833C18.5406 39.5833 13.324 35.8884 9.59279 31.9085C7.74618 29.9387 6.32382 27.9611 5.36336 26.4739Z" fill="#41A8D3"/>
<path d="M47.9167 25L49.7793 24.0668C50.0726 24.6534 50.0726 25.3466 49.7793 25.9332L47.9167 25Z" fill="#41A8D3"/>
<path d="M0.220677 24.0668L2.08333 25L0.219943 25.9317C-0.0733147 25.3452 -0.0725811 24.6534 0.220677 24.0668Z" fill="#41A8D3"/>
</svg>
