<svg width="70" height="70" viewBox="0 0 70 70" fill="none" xmlns="http://www.w3.org/2000/svg">
<rect width="70" height="70" rx="35" fill="#4CB8E7"/>
<path fill-rule="evenodd" clip-rule="evenodd" d="M21.6667 16.6667C18.9052 16.6667 16.6667 18.9053 16.6667 21.6667C16.6667 24.4282 18.9052 26.6667 21.6667 26.6667C24.4281 26.6667 26.6667 24.4282 26.6667 21.6667C26.6667 18.9053 24.4281 16.6667 21.6667 16.6667ZM20 21.6667C20 20.7463 20.7462 20.0001 21.6667 20.0001C22.5871 20.0001 23.3333 20.7463 23.3333 21.6667C23.3333 22.5872 22.5871 23.3334 21.6667 23.3334C20.7462 23.3334 20 22.5872 20 21.6667Z" fill="#F7F9FC"/>
<path fill-rule="evenodd" clip-rule="evenodd" d="M41.6667 26.6667C38.5725 26.6667 35.605 27.8959 33.4171 30.0838C31.2292 32.2718 30 35.2392 30 38.3334V50.0001C30 50.9206 30.7462 51.6667 31.6667 51.6667H38.3333C39.2538 51.6667 40 50.9206 40 50.0001V38.3334C40 37.8914 40.1756 37.4675 40.4881 37.1549C40.8007 36.8423 41.2246 36.6667 41.6667 36.6667C42.1087 36.6667 42.5326 36.8423 42.8452 37.1549C43.1577 37.4675 43.3333 37.8914 43.3333 38.3334V50.0001C43.3333 50.9206 44.0795 51.6667 45 51.6667H51.6667C52.5871 51.6667 53.3333 50.9206 53.3333 50.0001V38.3334C53.3333 35.2392 52.1042 32.2718 49.9162 30.0838C47.7283 27.8959 44.7608 26.6667 41.6667 26.6667ZM41.6667 30.0001C39.4565 30.0001 37.3369 30.8781 35.7741 32.4409C34.2113 34.0037 33.3333 36.1233 33.3333 38.3334V48.3334H36.6667V38.3334C36.6667 37.0073 37.1934 35.7356 38.1311 34.7979C39.0688 33.8602 40.3406 33.3334 41.6667 33.3334C42.9927 33.3334 44.2645 33.8602 45.2022 34.7979C46.1399 35.7356 46.6667 37.0073 46.6667 38.3334V48.3334H50V38.3334C50 36.1233 49.122 34.0037 47.5592 32.4409C45.9964 30.8781 43.8768 30.0001 41.6667 30.0001Z" fill="#F7F9FC"/>
<path fill-rule="evenodd" clip-rule="evenodd" d="M16.6667 30.0001C16.6667 29.0796 17.4128 28.3334 18.3333 28.3334H25C25.9205 28.3334 26.6667 29.0796 26.6667 30.0001V50.0001C26.6667 50.9206 25.9205 51.6667 25 51.6667H18.3333C17.4128 51.6667 16.6667 50.9206 16.6667 50.0001V30.0001ZM20 31.6667V48.3334H23.3333V31.6667H20Z" fill="#F7F9FC"/>
</svg>
