<svg width="28" height="28" viewBox="0 0 28 28" fill="none" xmlns="http://www.w3.org/2000/svg">
<path fill-rule="evenodd" clip-rule="evenodd" d="M13.441 0.381966C13.7929 0.206011 14.2071 0.206011 14.559 0.381966L27.059 6.63197C27.4825 6.84371 27.75 7.27653 27.75 7.75C27.75 8.22347 27.4825 8.65629 27.059 8.86803L14.559 15.118C14.2071 15.294 13.7929 15.294 13.441 15.118L0.941013 8.86803C0.517533 8.65629 0.25003 8.22347 0.25003 7.75C0.25003 7.27653 0.517533 6.84371 0.941013 6.63197L13.441 0.381966ZM4.29511 7.75L14 12.6025L23.7049 7.75L14 2.89754L4.29511 7.75Z" fill="#115A7B"/>
<path d="M0.381996 19.691C0.690732 19.0735 1.44157 18.8232 2.05905 19.132L14 25.1025L25.941 19.132C26.5585 18.8232 27.3093 19.0735 27.6181 19.691C27.9268 20.3085 27.6765 21.0593 27.059 21.368L14.559 27.618C14.2071 27.794 13.7929 27.794 13.441 27.618L0.941013 21.368C0.32354 21.0593 0.0732591 20.3085 0.381996 19.691Z" fill="#115A7B"/>
<path d="M2.05905 12.882C1.44157 12.5732 0.690732 12.8235 0.381996 13.441C0.0732591 14.0585 0.32354 14.8093 0.941013 15.118L13.441 21.368C13.7929 21.544 14.2071 21.544 14.559 21.368L27.059 15.118C27.6765 14.8093 27.9268 14.0585 27.6181 13.441C27.3093 12.8235 26.5585 12.5732 25.941 12.882L14 18.8525L2.05905 12.882Z" fill="#115A7B"/>
</svg>
