<svg width="50" height="50" viewBox="0 0 50 50" fill="none" xmlns="http://www.w3.org/2000/svg">
<path fill-rule="evenodd" clip-rule="evenodd" d="M25 18.75C21.5482 18.75 18.75 21.5483 18.75 25C18.75 28.4518 21.5482 31.25 25 31.25C28.4518 31.25 31.25 28.4518 31.25 25C31.25 21.5483 28.4518 18.75 25 18.75ZM22.9167 25C22.9167 23.8494 23.8494 22.9167 25 22.9167C26.1506 22.9167 27.0833 23.8494 27.0833 25C27.0833 26.1506 26.1506 27.0834 25 27.0834C23.8494 27.0834 22.9167 26.1506 22.9167 25Z" fill="#41A8D3"/>
<path fill-rule="evenodd" clip-rule="evenodd" d="M10.4167 25C10.4167 16.9459 16.9459 10.4167 25 10.4167C33.0542 10.4167 39.5833 16.9459 39.5833 25C39.5833 33.0542 33.0542 39.5834 25 39.5834C16.9459 39.5834 10.4167 33.0542 10.4167 25ZM25 14.5834C19.247 14.5834 14.5833 19.2471 14.5833 25C14.5833 30.753 19.247 35.4167 25 35.4167C30.753 35.4167 35.4167 30.753 35.4167 25C35.4167 19.2471 30.753 14.5834 25 14.5834Z" fill="#41A8D3"/>
<path fill-rule="evenodd" clip-rule="evenodd" d="M2.08334 25C2.08334 12.3435 12.3435 2.08337 25 2.08337C37.6565 2.08337 47.9167 12.3435 47.9167 25C47.9167 37.6566 37.6565 47.9167 25 47.9167C12.3435 47.9167 2.08334 37.6566 2.08334 25ZM25 6.25004C14.6447 6.25004 6.25001 14.6447 6.25001 25C6.25001 35.3554 14.6447 43.75 25 43.75C35.3554 43.75 43.75 35.3554 43.75 25C43.75 14.6447 35.3554 6.25004 25 6.25004Z" fill="#41A8D3"/>
</svg>
