<svg width="50" height="50" viewBox="0 0 50 50" fill="none" xmlns="http://www.w3.org/2000/svg">
<path fill-rule="evenodd" clip-rule="evenodd" d="M26.8682 3.24457C26.5172 2.53352 25.793 2.08337 25 2.08337C24.2071 2.08337 23.4829 2.53352 23.1319 3.24457L17.1786 15.3052L3.86537 17.2511C3.08087 17.3658 2.42945 17.9158 2.18491 18.67C1.94038 19.4242 2.14511 20.2518 2.71307 20.805L12.3448 30.1862L10.0717 43.4395C9.9376 44.2212 10.2589 45.0111 10.9006 45.4772C11.5422 45.9433 12.3928 46.0047 13.0947 45.6356L25 39.3747L36.9053 45.6356C37.6072 46.0047 38.4578 45.9433 39.0995 45.4772C39.7411 45.0111 40.0624 44.2212 39.9284 43.4395L37.6553 30.1862L47.287 20.805C47.8549 20.2518 48.0596 19.4242 47.8151 18.67C47.5706 17.9158 46.9192 17.3658 46.1347 17.2511L32.8214 15.3052L26.8682 3.24457ZM20.4307 18.1305L25 8.87349L29.5694 18.1305C29.8726 18.7448 30.4584 19.1707 31.1362 19.2698L41.3575 20.7638L33.9631 27.966C33.4717 28.4446 33.2474 29.1344 33.3633 29.8105L35.108 39.9827L25.9697 35.177C25.3627 34.8577 24.6374 34.8577 24.0303 35.177L14.8921 39.9827L16.6367 29.8105C16.7527 29.1344 16.5284 28.4446 16.037 27.966L8.64253 20.7638L18.8638 19.2698C19.5416 19.1707 20.1274 18.7448 20.4307 18.1305Z" fill="#41A8D3"/>
</svg>
