<svg width="50" height="50" viewBox="0 0 50 50" fill="none" xmlns="http://www.w3.org/2000/svg">
<rect width="50" height="50" rx="25" fill="#22749A"/>
<path fill-rule="evenodd" clip-rule="evenodd" d="M15 11.25C12.9289 11.25 11.25 12.9289 11.25 15C11.25 17.0711 12.9289 18.75 15 18.75C17.0711 18.75 18.75 17.0711 18.75 15C18.75 12.9289 17.0711 11.25 15 11.25ZM13.75 15C13.75 14.3096 14.3096 13.75 15 13.75C15.6904 13.75 16.25 14.3096 16.25 15C16.25 15.6904 15.6904 16.25 15 16.25C14.3096 16.25 13.75 15.6904 13.75 15Z" fill="white"/>
<path fill-rule="evenodd" clip-rule="evenodd" d="M30 18.75C27.6794 18.75 25.4538 19.6719 23.8128 21.3128C22.1719 22.9538 21.25 25.1794 21.25 27.5V36.25C21.25 36.9404 21.8096 37.5 22.5 37.5H27.5C28.1904 37.5 28.75 36.9404 28.75 36.25V27.5C28.75 27.1685 28.8817 26.8505 29.1161 26.6161C29.3505 26.3817 29.6685 26.25 30 26.25C30.3315 26.25 30.6495 26.3817 30.8839 26.6161C31.1183 26.8505 31.25 27.1685 31.25 27.5V36.25C31.25 36.9404 31.8096 37.5 32.5 37.5H37.5C38.1904 37.5 38.75 36.9404 38.75 36.25V27.5C38.75 25.1794 37.8281 22.9538 36.1872 21.3128C34.5462 19.6719 32.3206 18.75 30 18.75ZM30 21.25C28.3424 21.25 26.7527 21.9085 25.5806 23.0806C24.4085 24.2527 23.75 25.8424 23.75 27.5V35H26.25V27.5C26.25 26.5054 26.6451 25.5516 27.3484 24.8484C28.0516 24.1451 29.0054 23.75 30 23.75C30.9946 23.75 31.9484 24.1451 32.6516 24.8484C33.3549 25.5516 33.75 26.5054 33.75 27.5V35H36.25V27.5C36.25 25.8424 35.5915 24.2527 34.4194 23.0806C33.2473 21.9085 31.6576 21.25 30 21.25Z" fill="white"/>
<path fill-rule="evenodd" clip-rule="evenodd" d="M11.25 21.25C11.25 20.5596 11.8096 20 12.5 20H17.5C18.1904 20 18.75 20.5596 18.75 21.25V36.25C18.75 36.9404 18.1904 37.5 17.5 37.5H12.5C11.8096 37.5 11.25 36.9404 11.25 36.25V21.25ZM13.75 22.5V35H16.25V22.5H13.75Z" fill="white"/>
</svg>
