<svg width="1440" height="800" viewBox="0 0 1440 800" fill="none" xmlns="http://www.w3.org/2000/svg">
<circle cx="385.972" cy="138.639" r="15" transform="rotate(-165.906 385.972 138.639)" fill="#023F5C"/>
<circle cx="204.809" cy="8.09219" r="7.5" transform="rotate(-165.906 204.809 8.09219)" fill="#79C5E7"/>
<circle cx="32.6132" cy="4.03686" r="12.5" transform="rotate(-165.906 32.6132 4.03686)" fill="#3696C0"/>
<circle cx="406.226" cy="16.9066" r="10" transform="rotate(-165.906 406.226 16.9066)" fill="#717D96"/>
<circle cx="613.091" cy="34.8217" r="5" transform="rotate(-165.906 613.091 34.8217)" fill="#41A8D3"/>
<circle cx="566.807" cy="114.448" r="2.5" transform="rotate(-165.906 566.807 114.448)" fill="#1A202C"/>
<circle cx="7.5" cy="7.5" r="7.5" transform="matrix(0.969896 -0.24352 -0.24352 -0.969896 408.901 727.193)" fill="#79C5E7"/>
<circle cx="12.5" cy="12.5" r="12.5" transform="matrix(0.969896 -0.24352 -0.24352 -0.969896 577.465 729.205)" fill="#3696C0"/>
<circle cx="10" cy="10" r="10" transform="matrix(0.969896 -0.24352 -0.24352 -0.969896 205.668 739.041)" fill="#717D96"/>
<circle cx="5" cy="5" r="5" transform="matrix(0.969896 -0.24352 -0.24352 -0.969896 2.43524 750.889)" fill="#41A8D3"/>
</svg>
