<?xml version="1.0" encoding="iso-8859-1"?>
<!-- Uploaded to: SVG Repo, www.svgrepo.com, Generator: SVG Repo Mixer Tools -->
<svg height="800px" width="800px" version="1.1" id="Layer_1" xmlns="http://www.w3.org/2000/svg" xmlns:xlink="http://www.w3.org/1999/xlink" 
	 viewBox="0 0 512 512" xml:space="preserve">
<path style="fill:#507C5C;" d="M235.124,284.413c-3.658,0-7.317-1.395-10.107-4.187L43.814,99.025
	c-5.582-5.582-5.582-14.633,0-20.216c5.582-5.583,14.633-5.582,20.216,0L245.231,260.01c5.582,5.582,5.582,14.633,0,20.216
	C242.44,283.018,238.782,284.413,235.124,284.413z"/>
<path style="fill:#CFF09E;" d="M273.105,113.172l30.579-30.579c8.083-8.083,8.083-21.19,0-29.274l-32.962-32.962
	c-8.083-8.083-21.189-8.083-29.274,0l-30.579,30.579c-36.717-12.09-79.961-2.764-110.216,27.49l-28.611,28.612L217.004,252
	l28.611-28.611C275.871,193.133,285.195,149.889,273.105,113.172z"/>
<g>
	<path style="fill:#507C5C;" d="M217.004,266.292c-3.658,0-7.317-1.395-10.107-4.187L61.935,117.145
		c-5.582-5.582-5.582-14.633,0-20.215L90.546,68.32c23.737-23.735,54.991-36.807,88.004-36.807c9.58,0,19.017,1.132,28.158,3.372
		l24.633-24.636C237.95,3.641,246.738,0,256.085,0c9.347,0,18.135,3.641,24.744,10.249l32.962,32.964
		c13.644,13.644,13.644,35.845,0,49.489l-24.637,24.637c9.94,40.695-2.696,85.42-33.431,116.156l-28.612,28.612
		C224.321,264.897,220.661,266.292,217.004,266.292z M92.258,107.038l124.746,124.746l18.504-18.504
		c25.368-25.369,34.797-62.908,24.021-95.637c-1.688-5.124-0.346-10.762,3.469-14.578l30.579-30.579
		c2.499-2.497,2.499-6.561,0-9.058l-32.962-32.964c-1.632-1.632-3.539-1.877-4.528-1.877c-0.991,0-2.897,0.244-4.53,1.877
		l-30.579,30.579c-3.815,3.815-9.454,5.156-14.579,3.471c-8.894-2.929-18.262-4.413-27.849-4.413
		c-25.378,0-49.453,10.097-67.79,28.435L92.258,107.038z"/>
	<path style="fill:#507C5C;" d="M419.522,242.241c-29.143,0-52.851-23.708-52.851-52.849s23.708-52.849,52.851-52.849
		c29.143,0,52.851,23.708,52.851,52.849S448.663,242.241,419.522,242.241z M419.522,165.129c-13.378,0-24.263,10.883-24.263,24.261
		c0,13.378,10.884,24.261,24.263,24.261s24.263-10.883,24.263-24.261S432.899,165.129,419.522,165.129z"/>
	<path style="fill:#507C5C;" d="M402.399,169.14c-3.725,0-7.447-1.448-10.25-4.33L293.434,63.284
		c-5.503-5.66-5.376-14.71,0.284-20.213c5.662-5.502,14.709-5.375,20.213,0.284l98.715,101.526c5.503,5.66,5.376,14.71-0.284,20.213
		C409.584,167.795,405.989,169.14,402.399,169.14z"/>
	<path style="fill:#507C5C;" d="M426.726,444.198c-7.893,0-14.294-6.399-14.294-14.294V286.521c0-7.895,6.401-14.294,14.294-14.294
		c7.893,0,14.294,6.399,14.294,14.294v143.382C441.02,437.798,434.619,444.198,426.726,444.198z"/>
	<path style="fill:#507C5C;" d="M403.784,512h-33.97c-7.893,0-14.294-6.399-14.294-14.294s6.401-14.294,14.294-14.294h33.97
		c13.146,0,23.842-10.695,23.842-23.841c0-13.146-10.695-23.841-23.842-23.841H146.036c-13.146,0-23.841,10.695-23.841,23.841
		s10.695,23.841,23.841,23.841h149.314c7.893,0,14.294,6.399,14.294,14.294c0,7.895-6.401,14.294-14.294,14.294H146.036
		c-28.91,0-52.429-23.519-52.429-52.429s23.519-52.429,52.429-52.429h257.747c28.911,0,52.431,23.519,52.431,52.429
		S432.695,512,403.784,512z"/>
</g>
<path style="fill:#CFF09E;" d="M231.067,421.436h-67.385v-42.287c0-8.215,6.658-14.873,14.873-14.873h37.639
	c8.215,0,14.873,6.66,14.873,14.873V421.436z"/>
<path style="fill:#507C5C;" d="M231.067,435.73h-67.385c-7.895,0-14.294-6.399-14.294-14.294v-42.287
	c0-16.082,13.085-29.167,29.167-29.167h37.639c16.082,0,29.167,13.085,29.167,29.167v42.287
	C245.362,429.329,238.962,435.73,231.067,435.73z M177.977,407.142h38.797v-27.993c0-0.32-0.26-0.579-0.579-0.579h-37.639
	c-0.32,0-0.579,0.26-0.579,0.579V407.142z"/>
</svg>