<svg width="30" height="30" viewBox="0 0 30 30" fill="none" xmlns="http://www.w3.org/2000/svg">
<path d="M15.8839 9.11612L20.8839 14.1161C21.372 14.6043 21.372 15.3957 20.8839 15.8839L15.8839 20.8839C15.3957 21.372 14.6043 21.372 14.1161 20.8839C13.628 20.3957 13.628 19.6043 14.1161 19.1161L16.9822 16.25H10C9.30964 16.25 8.75 15.6904 8.75 15C8.75 14.3096 9.30964 13.75 10 13.75H16.9822L14.1161 10.8839C13.628 10.3957 13.628 9.60427 14.1161 9.11612C14.6043 8.62796 15.3957 8.62796 15.8839 9.11612Z" fill="#1A688A"/>
<path fill-rule="evenodd" clip-rule="evenodd" d="M1.25 15C1.25 7.40608 7.40608 1.25 15 1.25C22.5939 1.25 28.75 7.40608 28.75 15C28.75 22.5939 22.5939 28.75 15 28.75C7.40608 28.75 1.25 22.5939 1.25 15ZM15 3.75C8.7868 3.75 3.75 8.7868 3.75 15C3.75 21.2132 8.7868 26.25 15 26.25C21.2132 26.25 26.25 21.2132 26.25 15C26.25 8.7868 21.2132 3.75 15 3.75Z" fill="#1A688A"/>
</svg>
