<svg width="50" height="50" viewBox="0 0 50 50" fill="none" xmlns="http://www.w3.org/2000/svg">
<rect width="50" height="50" rx="25" fill="#22749A"/>
<path fill-rule="evenodd" clip-rule="evenodd" d="M22.1755 19.3983C23.3423 18.7928 24.6704 18.5707 25.9708 18.7635C27.2972 18.9602 28.5252 19.5783 29.4734 20.5265C30.4216 21.4747 31.0397 22.7027 31.2364 24.0291C31.4292 25.3295 31.2071 26.6576 30.6017 27.8245C29.9962 28.9914 29.0382 29.9376 27.864 30.5286C26.6897 31.1197 25.359 31.3254 24.0611 31.1165C22.7632 30.9077 21.5642 30.2949 20.6346 29.3653C19.705 28.4358 19.0922 27.2368 18.8834 25.9388C18.6745 24.6409 18.8803 23.3102 19.4713 22.136C20.0623 20.9617 21.0086 20.0037 22.1755 19.3983ZM25.6041 21.2365C24.8239 21.1208 24.027 21.254 23.3269 21.6173C22.6268 21.9806 22.059 22.5554 21.7044 23.26C21.3498 23.9645 21.2263 24.7629 21.3516 25.5417C21.477 26.3204 21.8446 27.0398 22.4024 27.5976C22.9601 28.1553 23.6795 28.523 24.4583 28.6483C25.237 28.7736 26.0354 28.6502 26.74 28.2955C27.4445 27.9409 28.0193 27.3732 28.3826 26.6731C28.7459 25.9729 28.8792 25.1761 28.7635 24.3958C28.6454 23.6 28.2746 22.8632 27.7057 22.2943C27.1368 21.7253 26.4 21.3545 25.6041 21.2365Z" fill="white"/>
<path d="M31.875 16.875C31.1846 16.875 30.625 17.4346 30.625 18.125C30.625 18.8154 31.1846 19.375 31.875 19.375H31.8875C32.5779 19.375 33.1375 18.8154 33.1375 18.125C33.1375 17.4346 32.5779 16.875 31.8875 16.875H31.875Z" fill="white"/>
<path fill-rule="evenodd" clip-rule="evenodd" d="M11.25 18.75C11.25 14.6079 14.6079 11.25 18.75 11.25H31.25C35.3921 11.25 38.75 14.6079 38.75 18.75V31.25C38.75 35.3921 35.3921 38.75 31.25 38.75H18.75C14.6079 38.75 11.25 35.3921 11.25 31.25V18.75ZM18.75 13.75C15.9886 13.75 13.75 15.9886 13.75 18.75V31.25C13.75 34.0114 15.9886 36.25 18.75 36.25H31.25C34.0114 36.25 36.25 34.0114 36.25 31.25V18.75C36.25 15.9886 34.0114 13.75 31.25 13.75H18.75Z" fill="white"/>
</svg>
