<svg width="28" height="28" viewBox="0 0 30 18" fill="none" xmlns="http://www.w3.org/2000/svg">
<path d="M21.25 0.25C20.5596 0.25 20 0.809644 20 1.5C20 2.19036 20.5596 2.75 21.25 2.75H25.7322L16.875 11.6072L11.5089 6.24112C11.0207 5.75296 10.2293 5.75296 9.74112 6.24112L0.366117 15.6161C-0.122039 16.1043 -0.122039 16.8957 0.366117 17.3839C0.854272 17.872 1.64573 17.872 2.13388 17.3839L10.625 8.89277L15.9911 14.2589C16.4793 14.747 17.2707 14.747 17.7589 14.2589L27.5 4.51777V9C27.5 9.69036 28.0596 10.25 28.75 10.25C29.4404 10.25 30 9.69036 30 9V1.5C30 0.809644 29.4404 0.25 28.75 0.25H21.25Z" fill="#115A7B"/>
</svg>
